<?xml version="1.0" encoding="UTF-8" standalone="no"?>
<!-- Created with Inkscape (http://www.inkscape.org/) -->

<svg
   xmlns:osb="http://www.openswatchbook.org/uri/2009/osb"
   xmlns:dc="http://purl.org/dc/elements/1.1/"
   xmlns:cc="http://creativecommons.org/ns#"
   xmlns:rdf="http://www.w3.org/1999/02/22-rdf-syntax-ns#"
   xmlns:svg="http://www.w3.org/2000/svg"
   xmlns="http://www.w3.org/2000/svg"
   xmlns:xlink="http://www.w3.org/1999/xlink"
   xmlns:sodipodi="http://sodipodi.sourceforge.net/DTD/sodipodi-0.dtd"
   xmlns:inkscape="http://www.inkscape.org/namespaces/inkscape"
   width="210mm"
   height="297mm"
   viewBox="0 0 744.09448819 1052.3622047"
   id="svg2"
   version="1.1"
   inkscape:version="0.91 r13725"
   sodipodi:docname="logo.svg"
   inkscape:export-filename="/home/aghasemi/Dropbox/Fall2017/gethsemane/doc/logo.png"
   inkscape:export-xdpi="90"
   inkscape:export-ydpi="90">
  <defs
     id="defs4">
    <linearGradient
       inkscape:collect="always"
       id="linearGradient5866">
      <stop
         style="stop-color:#ffff20;stop-opacity:1;"
         offset="0"
         id="stop5868" />
      <stop
         style="stop-color:#ffff20;stop-opacity:0;"
         offset="1"
         id="stop5870" />
    </linearGradient>
    <linearGradient
       inkscape:collect="always"
       id="linearGradient5858">
      <stop
         style="stop-color:#ffff20;stop-opacity:1;"
         offset="0"
         id="stop5860" />
      <stop
         style="stop-color:#ffff20;stop-opacity:0;"
         offset="1"
         id="stop5862" />
    </linearGradient>
    <linearGradient
       inkscape:collect="always"
       id="linearGradient5850">
      <stop
         style="stop-color:#ffff20;stop-opacity:1;"
         offset="0"
         id="stop5852" />
      <stop
         style="stop-color:#ffff20;stop-opacity:0;"
         offset="1"
         id="stop5854" />
    </linearGradient>
    <linearGradient
       inkscape:collect="always"
       id="linearGradient5842">
      <stop
         style="stop-color:#688700;stop-opacity:1;"
         offset="0"
         id="stop5844" />
      <stop
         style="stop-color:#688700;stop-opacity:0;"
         offset="1"
         id="stop5846" />
    </linearGradient>
    <linearGradient
       inkscape:collect="always"
       id="linearGradient5834">
      <stop
         style="stop-color:#682f24;stop-opacity:1;"
         offset="0"
         id="stop5836" />
      <stop
         style="stop-color:#682f24;stop-opacity:0;"
         offset="1"
         id="stop5838" />
    </linearGradient>
    <linearGradient
       inkscape:collect="always"
       id="linearGradient5633"
       osb:paint="gradient">
      <stop
         style="stop-color:#688700;stop-opacity:1;"
         offset="0"
         id="stop5635" />
      <stop
         style="stop-color:#688700;stop-opacity:0;"
         offset="1"
         id="stop5637" />
    </linearGradient>
    <linearGradient
       inkscape:collect="always"
       xlink:href="#linearGradient5834"
       id="linearGradient5840"
       x1="174.62999"
       y1="323.78677"
       x2="251.14954"
       y2="323.78677"
       gradientUnits="userSpaceOnUse" />
    <linearGradient
       inkscape:collect="always"
       xlink:href="#linearGradient5842"
       id="linearGradient5848"
       x1="152.51367"
       y1="287.53418"
       x2="271.71094"
       y2="287.53418"
       gradientUnits="userSpaceOnUse" />
    <linearGradient
       inkscape:collect="always"
       xlink:href="#linearGradient5850"
       id="linearGradient5856"
       x1="152.52255"
       y1="228.07649"
       x2="271.71982"
       y2="228.07649"
       gradientUnits="userSpaceOnUse" />
    <linearGradient
       inkscape:collect="always"
       xlink:href="#linearGradient5858"
       id="linearGradient5864"
       x1="152.45494"
       y1="242.00506"
       x2="271.65221"
       y2="242.00506"
       gradientUnits="userSpaceOnUse" />
    <linearGradient
       inkscape:collect="always"
       xlink:href="#linearGradient5866"
       id="linearGradient5872"
       x1="152.41992"
       y1="255.10351"
       x2="271.61719"
       y2="255.10351"
       gradientUnits="userSpaceOnUse" />
  </defs>
  <sodipodi:namedview
     id="base"
     pagecolor="#ffffff"
     bordercolor="#666666"
     borderopacity="1.0"
     inkscape:pageopacity="0.0"
     inkscape:pageshadow="2"
     inkscape:zoom="1.979899"
     inkscape:cx="247.51998"
     inkscape:cy="753.62869"
     inkscape:document-units="px"
     inkscape:current-layer="layer1"
     showgrid="false"
     inkscape:window-width="1366"
     inkscape:window-height="703"
     inkscape:window-x="0"
     inkscape:window-y="0"
     inkscape:window-maximized="1" />
  <metadata
     id="metadata7">
    <rdf:RDF>
      <cc:Work
         rdf:about="">
        <dc:format>image/svg+xml</dc:format>
        <dc:type
           rdf:resource="http://purl.org/dc/dcmitype/StillImage" />
        <dc:title></dc:title>
      </cc:Work>
    </rdf:RDF>
  </metadata>
  <g
     inkscape:label="Layer 1"
     inkscape:groupmode="layer"
     id="layer1">
    <path
       style="fill:url(#linearGradient5848);fill-opacity:1;fill-rule:evenodd;stroke:none;stroke-width:4;stroke-linecap:butt;stroke-linejoin:miter;stroke-miterlimit:4.19999981;stroke-dasharray:none;stroke-opacity:1"
       d="M 212.11133 242.2207 A 59.598999 46.214478 0 0 0 152.51367 288.43359 A 59.598999 46.214478 0 0 0 195.83398 332.84766 C 200.41745 319.46318 200.88235 303.95307 201.00781 287.5918 L 224.58008 287.5918 L 224.58008 287.61328 L 224.67188 287.61328 C 224.79629 303.83745 225.25762 319.22361 229.73438 332.53125 A 59.598999 46.214478 0 0 0 271.71094 288.43359 A 59.598999 46.214478 0 0 0 212.11133 242.2207 z "
       id="path3387" />
    <path
       style="opacity:1;fill:url(#linearGradient5840);fill-opacity:1;fill-rule:evenodd;stroke:none;stroke-width:4;stroke-linecap:butt;stroke-linejoin:miter;stroke-miterlimit:4;stroke-dasharray:none;stroke-opacity:0.88359794"
       d="M 201.05859 287.32617 C 200.83154 316.93454 199.51717 343.77056 174.63086 360.22656 L 174.67383 360.22656 A 59.598999 46.214478 0 0 1 213.23828 349.23438 A 59.598999 46.214478 0 0 1 247.91992 357.93555 C 226.16278 341.34189 224.9394 315.61162 224.72266 287.34766 L 224.63086 287.34766 L 224.63086 287.32617 L 201.05859 287.32617 z "
       id="path3367-6" />
    <path
       style="fill:url(#linearGradient5872);fill-opacity:1;fill-rule:evenodd;stroke:none;stroke-width:4;stroke-linecap:butt;stroke-linejoin:miter;stroke-miterlimit:4.19999981;stroke-dasharray:none;stroke-opacity:1"
       d="m 212.01757,229.12109 a 59.598999,46.214478 0 0 0 -59.59765,46.21289 59.598999,46.214478 0 0 0 0.52539,5.75196 59.598999,46.214478 0 0 1 59.07226,-40.53711 59.598999,46.214478 0 0 1 59.07227,40.42383 59.598999,46.214478 0 0 0 0.52735,-5.63868 59.598999,46.214478 0 0 0 -59.59962,-46.21289 z"
       id="path3387-3"
       inkscape:connector-curvature="0" />
    <path
       style="fill:url(#linearGradient5864);fill-opacity:1;fill-rule:evenodd;stroke:none;stroke-width:4;stroke-linecap:butt;stroke-linejoin:miter;stroke-miterlimit:4.19999981;stroke-dasharray:none;stroke-opacity:1"
       d="m 212.05259,216.02264 a 59.598999,46.214478 0 0 0 -59.59765,46.21289 59.598999,46.214478 0 0 0 0.52539,5.75196 59.598999,46.214478 0 0 1 59.07226,-40.53711 59.598999,46.214478 0 0 1 59.07227,40.42383 59.598999,46.214478 0 0 0 0.52735,-5.63868 59.598999,46.214478 0 0 0 -59.59962,-46.21289 z"
       id="path3387-3-6"
       inkscape:connector-curvature="0" />
    <path
       style="fill:url(#linearGradient5856);fill-opacity:1;fill-rule:evenodd;stroke:none;stroke-width:4;stroke-linecap:butt;stroke-linejoin:miter;stroke-miterlimit:4.19999981;stroke-dasharray:none;stroke-opacity:1"
       d="m 212.1202,202.09407 a 59.598999,46.214478 0 0 0 -59.59765,46.21289 59.598999,46.214478 0 0 0 0.52539,5.75196 59.598999,46.214478 0 0 1 59.07226,-40.53711 59.598999,46.214478 0 0 1 59.07227,40.42383 59.598999,46.214478 0 0 0 0.52735,-5.63868 59.598999,46.214478 0 0 0 -59.59962,-46.21289 z"
       id="path3387-3-2"
       inkscape:connector-curvature="0" />
  </g>
</svg>
